<?xml version="1.0" standalone="no"?>
<!DOCTYPE svg PUBLIC "-//W3C//DTD SVG 20010904//EN"
 "http://www.w3.org/TR/2001/REC-SVG-20010904/DTD/svg10.dtd">
<svg version="1.0" xmlns="http://www.w3.org/2000/svg"
 width="300.000000pt" height="300.000000pt" viewBox="0 0 300.000000 300.000000"
 preserveAspectRatio="xMidYMid meet">
<metadata>
Created by potrace 1.11, written by Peter Selinger 2001-2013
</metadata>
<g transform="translate(0.000000,300.000000) scale(0.100000,-0.100000)"
fill="#000000" stroke="none">
<path d="M1152 2989 c2 -7 12 -17 21 -23 13 -8 22 -6 39 12 l22 22 -22 0 c-12
0 -22 -6 -22 -12 0 -8 -3 -9 -8 -3 -11 15 -35 18 -30 4z"/>
<path d="M2440 2868 c-1 -510 -6 -836 -13 -853 -7 -16 -7 -17 3 -5 10 12 11
11 6 -10 -3 -14 -6 -31 -6 -38 0 -7 -4 -11 -8 -8 -5 3 -2 -25 6 -63 l15 -67
45 0 45 1 87 -143 c49 -79 89 -139 91 -133 2 6 14 8 27 5 l22 -6 0 -602 c0
-422 3 -601 10 -601 8 0 11 255 10 866 l0 867 44 15 c24 8 68 31 97 51 29 19
53 34 54 33 1 -1 -3 -56 -8 -122 -6 -84 -15 -133 -29 -163 -11 -23 -18 -45
-15 -48 2 -3 20 -1 38 4 l34 8 3 572 2 572 -104 0 c-91 0 -105 -2 -109 -17 -4
-17 -5 -17 -6 0 -1 15 -16 17 -171 17 l-170 0 0 -132z m358 -395 l2 67 40 0
c22 0 40 -4 40 -9 0 -5 12 -11 27 -13 17 -2 32 -12 39 -27 11 -21 13 -22 17
-5 3 11 3 1 0 -21 -13 -99 -73 -265 -95 -265 -3 0 -20 -14 -37 -31 l-31 -31
-2 29 c-1 20 -3 14 -8 -17 -4 -25 -7 144 -6 375 0 386 1 398 6 150 3 -148 7
-240 8 -202z m-233 102 c23 -1 125 -37 130 -46 10 -15 25 -10 26 9 0 14 2 14
9 -3 8 -18 9 -18 9 5 1 20 3 22 11 10 5 -8 10 -106 10 -225 -1 -169 -4 -214
-15 -229 -16 -22 -20 -40 -6 -32 12 8 21 -132 21 -333 0 -151 -2 -172 -15
-161 -8 6 -18 9 -23 6 -13 -8 -35 20 -27 34 4 6 1 9 -5 8 -7 -2 -20 9 -29 23
-9 15 -38 63 -66 108 -32 51 -58 83 -72 87 -22 6 -23 10 -25 148 -3 232 2 578
8 587 3 5 9 7 14 4 4 -3 11 3 15 13 6 14 8 15 14 2 3 -8 11 -15 16 -15z m402
-57 c-3 -7 -5 -2 -5 12 0 14 2 19 5 13 2 -7 2 -19 0 -25z"/>
<path d="M2793 2320 c0 -25 2 -35 4 -22 2 12 2 32 0 45 -2 12 -4 2 -4 -23z"/>
<path d="M894 2937 c-28 -24 -66 -61 -85 -82 -19 -22 -44 -51 -56 -64 -12 -14
-20 -27 -17 -30 3 -3 15 8 27 24 12 16 60 67 106 112 46 46 82 83 80 83 -2 0
-27 -20 -55 -43z"/>
<path d="M1472 2975 c21 -49 39 -85 43 -85 8 0 -24 73 -37 85 -7 7 -9 7 -6 0z"/>
<path d="M1660 2926 c0 -2 7 -7 16 -10 8 -3 12 -2 9 4 -6 10 -25 14 -25 6z"/>
<path d="M1755 2901 c-3 -5 -1 -12 5 -16 5 -3 10 1 10 9 0 18 -6 21 -15 7z"/>
<path d="M1710 2890 c13 -9 12 -12 -4 -25 -11 -8 -15 -15 -10 -15 6 0 19 7 30
15 16 13 17 16 4 25 -8 5 -19 10 -25 10 -5 0 -3 -5 5 -10z"/>
<path d="M800 2880 c-9 -6 -10 -10 -3 -10 6 0 15 5 18 10 8 12 4 12 -15 0z"/>
<path d="M1745 2859 c-4 -6 -5 -12 -2 -15 2 -3 7 2 10 11 7 17 1 20 -8 4z"/>
<path d="M1215 2753 c13 -54 27 -107 30 -118 4 -11 -4 -3 -19 17 -14 20 -26
42 -26 48 0 6 -4 9 -9 6 -4 -3 -2 -29 5 -58 14 -54 10 -93 -8 -82 -5 3 -7 17
-3 31 4 16 2 22 -5 18 -6 -3 -10 3 -10 15 0 12 -4 18 -10 15 -5 -3 -10 -30
-11 -58 0 -29 -3 -45 -6 -37 -4 8 -13 21 -21 30 -14 13 -15 12 -8 -13 4 -16 2
-27 -4 -27 -5 0 -10 14 -10 30 0 38 -14 38 -36 0 -16 -26 -23 -29 -64 -28 -91
2 -180 -4 -180 -13 0 -5 -4 -9 -10 -9 -5 0 -10 9 -10 20 0 24 -13 26 -30 5 -7
-9 -20 -13 -28 -10 -9 3 -18 1 -22 -5 -4 -7 -19 -5 -45 6 -28 11 -40 13 -45 4
-4 -7 -10 -8 -13 -4 -6 10 46 119 71 149 9 11 23 31 30 45 13 25 13 25 -10 -2
-32 -37 -81 -106 -104 -145 -20 -36 -34 -42 -34 -15 -1 14 -3 14 -20 -6 -10
-12 -20 -28 -23 -35 -3 -9 -8 -9 -18 2 -8 8 -9 11 -2 7 7 -4 9 0 6 12 -2 10
11 37 32 65 21 27 34 51 31 54 -7 7 -43 -35 -51 -60 -4 -9 -11 -15 -16 -12 -5
3 -6 -2 -2 -11 4 -12 3 -15 -5 -10 -8 5 -10 2 -6 -9 4 -11 2 -14 -9 -9 -10 3
-34 -12 -66 -43 -28 -27 -51 -46 -51 -42 0 32 78 161 124 204 6 6 20 22 31 36
11 14 -1 3 -28 -24 -26 -27 -58 -63 -71 -80 -46 -61 -110 -192 -133 -271 -12
-43 -25 -81 -27 -84 -3 -2 -64 -3 -135 -3 l-131 2 0 -276 0 -276 88 2 c48 1
93 6 99 11 9 7 15 5 19 -7 7 -17 8 -17 21 1 12 16 13 14 15 -22 1 -21 2 -52 1
-68 -2 -39 9 -23 32 49 l20 60 3 -47 c3 -53 16 -62 27 -20 6 22 10 11 20 -57
13 -84 11 -140 -7 -173 -14 -29 6 -21 42 17 19 19 36 35 40 35 3 0 20 -25 39
-56 18 -31 45 -70 60 -87 15 -18 42 -72 60 -122 46 -123 52 -131 46 -60 -4 58
-4 59 13 40 9 -11 38 -37 64 -58 46 -38 47 -40 54 -108 8 -83 19 -96 28 -34 4
25 10 45 14 45 4 0 20 -19 35 -42 50 -78 31 -198 -32 -198 -11 0 -33 -11 -49
-25 l-30 -25 -11 31 c-15 43 -15 92 1 83 7 -4 8 -3 4 5 -4 6 -11 9 -16 6 -4
-3 -10 1 -13 7 -3 7 -3 -11 -1 -41 3 -29 8 -61 13 -70 5 -9 11 -47 15 -86 3
-38 8 -77 9 -85 2 -8 9 -40 15 -70 16 -77 54 -370 59 -457 3 -40 9 -73 14 -73
12 0 11 85 -2 135 -5 22 -14 72 -19 110 -4 39 -15 121 -24 184 -9 63 -16 117
-16 120 0 2 19 -22 41 -55 69 -97 152 -195 228 -266 115 -109 99 -78 -24 46
-62 62 -116 124 -120 136 -4 13 -20 45 -36 72 -16 26 -25 48 -21 48 4 0 57
-16 117 -35 155 -50 170 -53 265 -64 108 -12 186 0 270 42 36 17 68 33 71 35
9 4 35 -75 48 -143 18 -101 41 -268 44 -315 2 -41 4 -45 30 -48 25 -3 27 -1
27 30 -1 18 -7 44 -15 58 -8 14 -15 43 -16 65 -1 38 -2 38 -8 10 -5 -26 -8
-22 -18 35 -23 122 -26 163 -12 155 8 -5 10 -4 5 4 -4 6 -12 9 -17 6 -8 -5
-13 23 -13 77 0 9 -3 15 -7 12 -4 -2 -11 6 -14 18 -4 13 -14 31 -22 40 -9 10
-12 25 -8 40 4 14 3 18 -2 11 -11 -15 -90 74 -116 131 -9 21 -20 36 -23 33 -3
-3 0 -15 6 -27 6 -12 9 -24 6 -27 -3 -4 -13 10 -21 30 -16 38 -18 125 -5 167
l8 25 1 -24 c1 -33 11 -21 30 37 l17 49 -56 -22 c-98 -40 -110 -40 -202 1
-125 57 -213 118 -309 213 -72 72 -94 102 -133 181 -25 52 -46 91 -46 86 0 -5
-8 -2 -17 5 -10 8 -5 -1 10 -19 15 -19 27 -38 27 -43 0 -13 -46 -22 -64 -12
-40 22 -180 161 -193 190 -14 35 -11 98 8 176 20 77 43 24 34 -76 -3 -39 -2
-55 3 -42 5 11 7 26 4 34 -4 10 -1 12 7 7 7 -5 24 -35 38 -67 25 -57 43 -78
25 -28 -5 13 -12 51 -16 84 l-6 60 19 -46 c25 -64 84 -159 116 -189 l27 -25
-7 30 c-4 17 -9 39 -12 49 -5 18 -4 18 23 -1 69 -48 220 -106 211 -80 -2 7 -9
11 -14 10 -6 -1 -23 11 -38 27 -16 17 -24 30 -18 30 6 0 18 -12 28 -26 9 -14
19 -24 21 -21 3 3 -9 25 -26 50 -16 25 -44 76 -62 113 -27 58 -32 83 -38 173
-3 58 -4 116 -2 128 2 11 26 47 53 79 27 32 49 62 49 66 0 5 15 30 33 57 17
27 40 62 49 80 17 30 82 71 94 58 4 -3 1 -27 -5 -53 -7 -25 -10 -48 -7 -51 2
-2 10 21 17 51 7 31 16 56 21 56 11 0 11 1 -16 -92 -34 -116 -37 -123 -48
-106 -6 9 -7 5 -3 -11 5 -15 3 -21 -3 -17 -6 3 -13 -3 -17 -13 -3 -11 -22 -30
-41 -42 -38 -23 -79 -81 -90 -126 -6 -27 -6 -27 22 8 37 47 85 80 121 84 37 4
45 -2 33 -26 -13 -24 -47 -25 -52 -1 -6 30 -38 -52 -38 -98 l0 -42 32 20 32
20 11 -21 c14 -28 54 -29 69 -2 6 11 12 22 14 24 1 3 13 -6 27 -19 l25 -23 0
34 c-1 19 -7 52 -15 74 -19 52 -19 52 10 25 30 -28 32 -13 5 39 -27 55 -64 82
-101 74 -16 -3 -29 -1 -29 4 0 5 20 45 45 89 25 43 51 96 57 117 12 40 21 43
73 21 12 -5 6 4 -14 22 -31 28 -33 33 -26 72 4 25 11 39 17 36 7 -4 8 4 3 24
-5 23 -2 33 13 44 10 7 21 20 25 28 4 12 6 11 6 -3 1 -15 3 -16 15 -5 9 9 11
20 5 36 -18 48 -12 53 36 28 24 -13 64 -27 87 -31 24 -4 50 -12 58 -18 12 -9
13 -9 3 3 -31 34 -7 88 33 73 9 -3 21 3 30 16 18 25 39 26 91 7 21 -8 78 -17
127 -20 49 -3 94 -11 102 -17 9 -7 24 -7 50 0 28 8 45 7 72 -4 50 -21 52 -19
35 25 -9 22 -20 40 -25 40 -4 0 -8 12 -8 26 l0 27 -24 -26 c-13 -14 -35 -29
-48 -32 -35 -9 -128 -22 -128 -19 0 2 20 17 45 34 45 31 64 61 26 40 -11 -5
-63 -15 -115 -22 -111 -14 -193 -4 -290 36 -63 26 -164 108 -193 156 -9 17
-20 30 -24 30 -4 0 4 -44 16 -97z m17 -228 c9 -20 9 -20 -6 -1 -9 11 -16 27
-15 35 0 14 1 14 6 1 3 -8 10 -24 15 -35z m-16 -51 c-11 -42 -26 -26 -26 29
l1 52 15 -28 c9 -17 13 -39 10 -53z m-139 -133 c1 -58 0 -60 -29 -70 -17 -6
-32 -11 -34 -11 -1 0 12 32 29 70 17 39 31 70 32 70 0 0 1 -27 2 -59z m-217
-827 c0 -17 -12 -18 -27 -3 -17 17 -5 43 13 28 8 -6 14 -18 14 -25z m65 -429
c44 -46 269 -175 305 -175 6 0 10 -4 10 -9 0 -16 33 -18 78 -5 23 7 42 9 42 6
0 -4 5 0 11 8 8 12 9 11 5 -5 -2 -11 -8 -39 -11 -62 -7 -46 -18 -54 -34 -25
-6 9 -11 13 -11 9 0 -5 -7 -1 -16 7 -8 9 -23 16 -32 16 -15 0 -15 -2 -2 -10
10 -7 -25 -8 -105 -3 -66 3 -122 9 -125 13 -3 4 -35 10 -71 14 -50 6 -70 4
-80 -7 -12 -11 -14 -1 -15 67 0 45 -4 112 -8 151 l-7 69 28 -24 c15 -14 33
-29 38 -35z m-48 -277 c-3 -8 -6 -5 -6 6 -1 11 2 17 5 13 3 -3 4 -12 1 -19z
m10 -186 c205 -111 280 -130 389 -97 28 8 79 33 113 55 l63 41 22 -20 c11 -11
29 -33 39 -50 17 -30 17 -30 -8 -47 -14 -9 -55 -27 -91 -40 -134 -49 -341 -19
-589 85 -77 32 -90 48 -98 124 -4 44 -3 47 12 34 9 -8 75 -47 148 -85z m770
-589 c-3 -10 -5 -2 -5 17 0 19 2 27 5 18 2 -10 2 -26 0 -35z"/>
<path d="M1201 2484 c0 -11 3 -14 6 -6 3 7 2 16 -1 19 -3 4 -6 -2 -5 -13z"/>
<path d="M1068 933 c7 -3 16 -2 19 1 4 3 -2 6 -13 5 -11 0 -14 -3 -6 -6z"/>
<path d="M1318 873 c7 -3 16 -2 19 1 4 3 -2 6 -13 5 -11 0 -14 -3 -6 -6z"/>
<path d="M1214 855 c-17 -13 -16 -14 16 -3 43 14 49 18 24 18 -11 0 -29 -7
-40 -15z"/>
<path d="M1308 853 c6 -2 18 -2 25 0 6 3 1 5 -13 5 -14 0 -19 -2 -12 -5z"/>
<path d="M1468 2843 c7 -3 16 -2 19 1 4 3 -2 6 -13 5 -11 0 -14 -3 -6 -6z"/>
<path d="M1658 2843 c7 -3 16 -2 19 1 4 3 -2 6 -13 5 -11 0 -14 -3 -6 -6z"/>
<path d="M695 2825 c-16 -8 -26 -14 -22 -15 5 0 -16 -28 -47 -62 -31 -34 -53
-64 -50 -67 3 -3 15 8 27 24 12 17 45 54 75 83 30 28 52 52 50 51 -1 0 -16 -7
-33 -14z"/>
<path d="M1513 2833 c9 -2 23 -2 30 0 6 3 -1 5 -18 5 -16 0 -22 -2 -12 -5z"/>
<path d="M1850 2816 c0 -2 7 -7 16 -10 8 -3 12 -2 9 4 -6 10 -25 14 -25 6z"/>
<path d="M603 2779 c-35 -22 -46 -37 -15 -20 22 13 58 40 52 41 -3 0 -20 -10
-37 -21z"/>
<path d="M1677 2780 c-9 -11 -13 -20 -7 -20 5 0 14 9 20 20 6 11 9 20 8 20 -2
0 -11 -9 -21 -20z"/>
<path d="M1840 2796 c0 -3 9 -10 20 -16 11 -6 20 -8 20 -6 0 3 -9 10 -20 16
-11 6 -20 8 -20 6z"/>
<path d="M1936 2753 c-6 -14 -5 -15 5 -6 7 7 10 15 7 18 -3 3 -9 -2 -12 -12z"/>
<path d="M1620 2751 c-22 -6 -23 -8 -7 -14 27 -10 34 -9 34 8 0 8 -1 15 -1 14
-1 -1 -12 -4 -26 -8z"/>
<path d="M1962 2730 c0 -14 2 -19 5 -12 2 6 2 18 0 25 -3 6 -5 1 -5 -13z"/>
<path d="M1050 2730 c0 -5 -16 -35 -36 -66 -20 -30 -33 -58 -30 -61 8 -8 6
-10 49 70 20 37 32 67 27 67 -6 0 -10 -4 -10 -10z"/>
<path d="M1903 2729 c-6 -6 -28 -17 -49 -24 -23 -8 -31 -14 -19 -15 19 0 85
34 85 45 0 8 -5 6 -17 -6z"/>
<path d="M1670 2721 c8 -5 26 -12 40 -15 l25 -7 -25 15 c-14 9 -32 15 -40 15
-13 0 -13 -1 0 -8z"/>
<path d="M2166 2711 c-4 -7 -5 -15 -2 -18 9 -9 19 4 14 18 -4 11 -6 11 -12 0z"/>
<path d="M1610 2700 c8 -5 20 -10 25 -10 6 0 3 5 -5 10 -8 5 -19 10 -25 10 -5
0 -3 -5 5 -10z"/>
<path d="M1695 2690 c-44 -6 -40 -7 34 -8 46 -1 82 0 80 2 -10 8 -68 11 -114
6z"/>
<path d="M469 2623 c-13 -16 -12 -17 4 -4 9 7 17 15 17 17 0 8 -8 3 -21 -13z"/>
<path d="M2080 2610 c-8 -5 -10 -10 -5 -10 6 0 17 5 25 10 8 5 11 10 5 10 -5
0 -17 -5 -25 -10z"/>
<path d="M445 2580 c-3 -5 -1 -10 4 -10 6 0 11 5 11 10 0 6 -2 10 -4 10 -3 0
-8 -4 -11 -10z"/>
<path d="M2090 2546 c0 -2 7 -7 16 -10 8 -3 12 -2 9 4 -6 10 -25 14 -25 6z"/>
<path d="M2149 2493 c15 -30 25 -35 42 -20 8 7 12 11 10 10 -2 -2 -10 2 -18 9
-11 9 -12 7 -7 -8 4 -15 1 -13 -16 6 -19 22 -20 22 -11 3z"/>
<path d="M2230 2466 c0 -2 7 -9 15 -16 13 -11 14 -10 9 4 -5 14 -24 23 -24 12z"/>
<path d="M2180 2446 c0 -2 8 -10 18 -17 15 -13 16 -12 3 4 -13 16 -21 21 -21
13z"/>
<path d="M1252 2415 c0 -16 2 -22 5 -12 2 9 2 23 0 30 -3 6 -5 -1 -5 -18z"/>
<path d="M1790 2410 c0 -5 5 -10 11 -10 5 0 7 5 4 10 -3 6 -8 10 -11 10 -2 0
-4 -4 -4 -10z"/>
<path d="M1645 2201 c-17 -7 -17 -8 8 -13 16 -3 31 0 38 8 9 11 7 14 -7 13
-11 0 -28 -4 -39 -8z"/>
<path d="M1810 2176 c0 -2 7 -7 16 -10 8 -3 12 -2 9 4 -6 10 -25 14 -25 6z"/>
<path d="M1031 2084 c0 -11 3 -14 6 -6 3 7 2 16 -1 19 -3 4 -6 -2 -5 -13z"/>
<path d="M1366 2087 c3 -10 9 -15 12 -12 3 3 0 11 -7 18 -10 9 -11 8 -5 -6z"/>
<path d="M1146 2005 c10 -8 23 -15 28 -15 6 0 1 7 -10 15 -10 8 -23 15 -28 15
-6 0 -1 -7 10 -15z"/>
<path d="M1674 1906 c-17 -8 -41 -29 -54 -47 -13 -19 -17 -28 -10 -21 15 13
52 16 63 5 9 -9 -22 -43 -40 -43 -7 0 -13 6 -14 13 0 15 -13 -17 -23 -58 -7
-28 -7 -29 12 -12 27 25 42 21 42 -12 0 -38 32 -51 60 -26 11 10 17 22 14 26
-9 15 13 10 26 -6 12 -15 5 -55 -11 -55 -5 0 -9 -8 -9 -17 0 -13 6 -9 20 12
23 34 27 122 8 158 -10 20 -10 21 5 9 24 -20 57 -94 57 -128 1 -28 1 -28 16
-9 11 14 14 32 10 63 -4 31 -3 41 6 36 7 -4 8 -3 4 5 -4 6 -11 9 -15 7 -4 -3
-13 9 -19 27 -12 30 -59 69 -99 81 -10 3 -32 -1 -49 -8z"/>
<path d="M1870 1760 c6 -11 13 -20 16 -20 2 0 0 9 -6 20 -6 11 -13 20 -16 20
-2 0 0 -9 6 -20z"/>
<path d="M970 1753 c0 -6 9 -21 21 -34 l20 -24 -17 30 c-24 39 -24 40 -24 28z"/>
<path d="M1146 1745 c-9 -26 -7 -32 5 -12 6 10 9 21 6 23 -2 3 -7 -2 -11 -11z"/>
<path d="M1892 1664 c-6 -27 -14 -58 -18 -69 -7 -17 -6 -18 8 -5 8 8 13 22 11
30 -2 8 3 4 11 -10 17 -28 15 -55 -15 -165 -22 -79 -23 -87 -8 -62 5 9 14 17
19 17 12 0 0 -37 -16 -51 -8 -6 -14 -16 -14 -21 0 -12 71 64 102 109 28 40 37
41 69 7 13 -14 32 -30 42 -36 17 -9 17 -8 2 21 -8 17 -18 51 -21 75 -6 38 -11
47 -40 61 -33 16 -79 67 -106 119 l-16 30 -10 -50z m45 -136 c-3 -8 -6 -5 -6
6 -1 11 2 17 5 13 3 -3 4 -12 1 -19z"/>
<path d="M1043 1643 c9 -2 25 -2 35 0 9 3 1 5 -18 5 -19 0 -27 -2 -17 -5z"/>
<path d="M2792 1576 c-2 -45 2 -62 16 -75 10 -9 53 -64 95 -123 43 -59 82
-110 86 -112 5 -3 9 5 9 19 0 14 -4 22 -9 20 -4 -3 -11 -1 -14 5 -4 6 -1 9 7
8 10 -2 14 20 16 95 3 97 3 97 -21 97 -27 0 -52 -23 -42 -40 7 -11 -8 -14 -19
-3 -4 4 -15 8 -24 8 -12 0 -16 7 -14 25 2 19 0 22 -8 10 -6 -10 -10 -11 -10
-2 0 6 -5 12 -11 12 -8 0 -7 -5 1 -15 20 -24 6 -28 -15 -4 -16 16 -17 22 -6
28 17 11 4 34 -14 27 -10 -3 -15 7 -18 37 -3 35 -4 32 -5 -17z m33 -36 c-3 -5
-11 -10 -16 -10 -6 0 -7 5 -4 10 3 6 11 10 16 10 6 0 7 -4 4 -10z m79 -90 c9
0 16 -7 16 -16 0 -13 -5 -12 -30 6 -16 12 -30 27 -30 33 0 7 7 4 14 -5 7 -10
21 -18 30 -18z m23 -65 c0 -8 -4 -12 -9 -9 -4 3 -8 9 -8 15 0 5 4 9 8 9 5 0 9
-7 9 -15z m20 -7 c-3 -8 -6 -5 -6 6 -1 11 2 17 5 13 3 -3 4 -12 1 -19z"/>
<path d="M1663 1593 c9 -2 23 -2 30 0 6 3 -1 5 -18 5 -16 0 -22 -2 -12 -5z"/>
<path d="M1894 1577 c-3 -9 -12 -13 -20 -10 -8 3 -14 0 -14 -7 0 -7 -14 -31
-32 -54 -27 -36 -24 -34 27 16 33 32 56 60 52 64 -3 4 -9 0 -13 -9z"/>
<path d="M2344 1568 l-19 -23 23 19 c21 18 27 26 19 26 -2 0 -12 -10 -23 -22z"/>
<path d="M2294 1508 l-19 -23 23 19 c12 11 22 21 22 23 0 8 -8 2 -26 -19z"/>
<path d="M2147 1513 c30 -6 86 -62 79 -79 -9 -23 2 -16 25 19 20 28 21 30 3
14 -20 -16 -21 -16 -33 7 -14 26 -51 47 -79 45 -11 -1 -9 -3 5 -6z"/>
<path d="M2141 1364 c0 -11 3 -14 6 -6 3 7 2 16 -1 19 -3 4 -6 -2 -5 -13z"/>
<path d="M2130 1281 c0 -6 4 -13 10 -16 6 -3 7 1 4 9 -7 18 -14 21 -14 7z"/>
<path d="M2165 1230 c10 -11 20 -20 23 -20 3 0 -3 9 -13 20 -10 11 -20 20 -23
20 -3 0 3 -9 13 -20z"/>
<path d="M2620 1178 c0 -9 -36 -52 -80 -97 -102 -103 -121 -106 -207 -30 -32
28 -69 63 -83 78 -31 33 -16 8 22 -37 30 -35 34 -66 22 -156 -5 -36 -10 -46
-22 -41 -11 4 -12 2 -4 -8 8 -10 0 -28 -34 -77 -24 -35 -44 -68 -44 -74 0 -5
18 18 40 51 50 77 60 84 60 39 0 -37 40 -95 134 -194 69 -72 70 -76 51 -124
-13 -34 -45 -204 -45 -245 0 -7 10 -13 21 -13 24 0 239 57 257 69 9 5 9 23 1
71 -13 74 -24 99 -85 191 -54 82 -56 114 -12 166 18 21 39 42 45 46 19 12 16
45 -4 51 -10 3 -47 10 -83 16 -61 11 -140 50 -140 69 0 5 26 7 58 4 l58 -5 27
60 c14 33 29 78 32 99 4 21 11 51 17 66 6 15 8 30 4 34 -3 3 -6 -1 -6 -9z"/>
<path d="M1650 1060 c-9 -6 -10 -10 -3 -10 6 0 15 5 18 10 8 12 4 12 -15 0z"/>
<path d="M574 1038 l-19 -23 23 19 c21 18 27 26 19 26 -2 0 -12 -10 -23 -22z"/>
<path d="M1600 1030 c-9 -6 -10 -10 -3 -10 6 0 15 5 18 10 8 12 4 12 -15 0z"/>
<path d="M2650 965 c-14 -8 -20 -14 -14 -15 5 0 19 7 30 15 24 18 16 19 -16 0z"/>
<path d="M2568 933 c7 -3 16 -2 19 1 4 3 -2 6 -13 5 -11 0 -14 -3 -6 -6z"/>
<path d="M761 889 c-6 -18 -11 -37 -10 -43 0 -6 7 7 15 28 8 22 12 41 10 43
-2 2 -9 -10 -15 -28z"/>
<path d="M345 803 c-69 -75 -84 -99 -85 -131 -1 -68 -62 -112 -183 -132 -42
-7 -77 -17 -77 -21 0 -11 -6 -12 86 7 44 9 94 24 112 35 18 10 35 19 36 19 2
0 4 -20 4 -44 1 -32 -10 -69 -37 -128 -20 -46 -55 -136 -75 -200 -21 -65 -43
-118 -48 -118 -6 0 -7 7 -4 16 3 8 2 12 -3 9 -6 -3 -14 2 -19 12 -8 13 -6 21
6 31 15 11 14 12 -4 3 -16 -8 -25 -7 -33 3 -6 7 -7 17 -3 21 4 5 2 6 -4 2 -8
-5 -12 -136 -5 -179 3 -19 29 -5 33 17 3 13 2 22 -3 20 -9 -6 -22 29 -24 63
-1 21 0 22 12 6 7 -10 10 -27 7 -37 -4 -13 -2 -17 5 -13 12 8 26 -37 16 -53
-3 -6 0 -11 8 -11 9 0 19 18 26 47 6 27 20 71 30 98 10 28 31 88 47 135 15 47
39 110 53 140 l25 55 8 -40 c5 -22 13 -65 17 -95 l9 -55 1 53 c0 29 -3 61 -9
71 -16 30 -24 178 -12 219 6 20 14 50 17 65 3 16 35 60 70 97 55 59 74 83 63
79 -2 0 -30 -30 -63 -66z m-315 -781 c0 -15 -2 -15 -10 -2 -13 20 -13 33 0 25
6 -3 10 -14 10 -23z"/>
<path d="M1480 780 c6 -11 13 -20 16 -20 2 0 0 9 -6 20 -6 11 -13 20 -16 20
-2 0 0 -9 6 -20z"/>
<path d="M2212 573 c-18 -76 -32 -156 -31 -178 l1 -40 9 50 c5 28 21 103 35
167 14 64 24 122 22 129 -2 6 -18 -51 -36 -128z"/>
<path d="M2042 644 c-1 -37 3 -55 14 -65 9 -7 20 -22 24 -34 7 -15 9 -16 9 -4
1 9 -8 27 -18 41 -11 13 -21 44 -24 69 l-4 44 -1 -51z"/>
<path d="M1522 630 c0 -14 2 -19 5 -12 2 6 2 18 0 25 -3 6 -5 1 -5 -13z"/>
<path d="M2100 477 c0 -2 12 -28 26 -58 27 -54 33 -73 61 -186 16 -65 30 -77
54 -46 8 9 9 14 3 10 -18 -10 -33 14 -58 95 -26 81 -72 188 -80 188 -4 0 -6
-1 -6 -3z"/>
<path d="M1632 285 c0 -16 2 -22 5 -12 2 9 2 23 0 30 -3 6 -5 -1 -5 -18z"/>
<path d="M1641 214 c0 -11 3 -14 6 -6 3 7 2 16 -1 19 -3 4 -6 -2 -5 -13z"/>
<path d="M36 184 c-5 -14 -4 -15 9 -4 17 14 19 20 6 20 -5 0 -12 -7 -15 -16z"/>
<path d="M254 114 c-4 -10 -13 -34 -20 -52 -15 -38 -9 -62 16 -62 14 0 18 12
23 57 6 58 -6 94 -19 57z"/>
</g>
</svg>
